<svg class="indicator-body" xml:space="preserve" viewBox="0 0 18000 3800">
<g class="color_dotsSVG">
  <line class="fil0 str0" x1="312" y1="1020" x2="17211" y2="1020"/>
  <g class="color_dotsSVG-borders">
    <path d="M607 1020c0,163 -132,295 -295,295 -163,0 -295,-132 -295,-295 0,-163 132,-295 295,-295 163,0 295,132 295,295z"/>
    <path d="M2703 1020c0,163 -132,295 -295,295 -163,0 -295,-132 -295,-295 0,-163 132,-295 295,-295 163,0 295,132 295,295z"/>
    <path d="M4799 1020c0,163 -132,295 -295,295 -163,0 -295,-132 -295,-295 0,-163 132,-295 295,-295 163,0 295,132 295,295z"/>
    <path d="M6895 1020c0,163 -132,295 -295,295 -163,0 -295,-132 -295,-295 0,-163 132,-295 295,-295 163,0 295,132 295,295z"/>
    <path d="M8991 1020c0,163 -132,295 -295,295 -163,0 -295,-132 -295,-295 0,-163 132,-295 295,-295 163,0 295,132 295,295z"/>
    <path d="M11087 1020c0,163 -132,295 -295,295 -163,0 -295,-132 -295,-295 0,-163 132,-295 295,-295 163,0 295,132 295,295z"/>
    <path d="M13183 1020c0,163 -132,295 -295,295 -163,0 -295,-132 -295,-295 0,-163 132,-295 295,-295 163,0 295,132 295,295z"/>
    <path d="M15279 1020c0,163 -132,295 -295,295 -163,0 -295,-132 -295,-295 0,-163 132,-295 295,-295 163,0 295,132 295,295z"/>
    <path d="M17375 1020c0,163 -132,295 -295,295 -163,0 -295,-132 -295,-295 0,-163 132,-295 295,-295 163,0 295,132 295,295z"/>
  </g>
  <g class="color_dotsSVG-dash-titles">
    <text x="131" y="2069"></text>
    <text x="2021" y="2069"></text>
    <text x="4098" y="2069"></text>
    <text x="6346" y="2069"></text>
    <text x="8423" y="2069"></text>
    <text x="10500" y="2069"></text>
    <text x="12577" y="2069"></text>
    <text x="14654" y="2069"></text>
    <text x="16731" y="2069"></text>
  </g>
  <g class="color_dotsSVG-dashes">
    <path d="M490 1020c0,98 -80,178 -178,178 -98,0 -178,-80 -178,-178 0,-98 80,-178 178,-178 98,0 178,80 178,178z"/>
    <path d="M2586 1020c0,98 -80,178 -178,178 -98,0 -178,-80 -178,-178 0,-98 80,-178 178,-178 98,0 178,80 178,178z"/>
    <path d="M4682 1020c0,98 -80,178 -178,178 -98,0 -178,-80 -178,-178 0,-98 80,-178 178,-178 98,0 178,80 178,178z"/>
    <path d="M6778 1020c0,98 -80,178 -178,178 -98,0 -178,-80 -178,-178 0,-98 80,-178 178,-178 98,0 178,80 178,178z"/>
    <path d="M8874 1020c0,98 -80,178 -178,178 -98,0 -178,-80 -178,-178 0,-98 80,-178 178,-178 98,0 178,80 178,178z"/>
    <path d="M10970 1020c0,98 -80,178 -178,178 -98,0 -178,-80 -178,-178 0,-98 80,-178 178,-178 98,0 178,80 178,178z"/>
    <path d="M13066 1020c0,98 -80,178 -178,178 -98,0 -178,-80 -178,-178 0,-98 80,-178 178,-178 98,0 178,80 178,178z"/>
    <path d="M15162 1020c0,98 -80,178 -178,178 -98,0 -178,-80 -178,-178 0,-98 80,-178 178,-178 98,0 178,80 178,178z"/>
    <path d="M17258 1020c0,98 -80,178 -178,178 -98,0 -178,-80 -178,-178 0,-98 80,-178 178,-178 98,0 178,80 178,178z"/>
  </g>
  <text class="sensor-name" x="7" y="318"></text>
  <text class="sensor-val" x="7" y="3500" text-anchor="start"></text>
</g>
</svg>