<svg class="indicator-body" xml:space="preserve" viewBox="0 0 11229 11229">
<g class="gauge_circle2SVG">
  <path class="fil0" d="M0 5615c0,-3101 2514,-5615 5615,-5615 3101,0 5615,2514 5615,5615 0,3101 -2514,5615 -5615,5615 -3101,0 -5615,-2514 -5615,-5615z"/>
  <path class="fil1" d="M5615 5615l-5447 0c0,-3008 2439,-5447 5447,-5447 3008,0 5447,2439 5447,5447 0,2547 -1765,4754 -4250,5314l-1196 -5314z"/>
  <path class="fil2" d="M5615 5615l-5447 0c0,-3008 2439,-5447 5447,-5447 3008,0 5447,2439 5447,5447 0,476 -62,950 -186,1410l-5261 -1410z"/>
  <path class="fil3" d="M5615 5615l-1197 5313c-2485,-560 -4249,-2767 -4249,-5313 0,-1445 574,-2830 1595,-3851l3851 3851z"/>
  <g class="fil5">
    <polygon points="2002,9673 1974,9648 2123,9481 2151,9506"/>
    <polygon points="1779,9463 1753,9437 1911,9279 1938,9305"/>
    <polygon points="1570,9247 1545,9219 1712,9067 1737,9095"/>
    <polygon points="1378,9021 1342,8976 1696,8695 1731,8739"/>
    <polygon points="2250,9883 2191,9836 2615,9305 2674,9352"/>
    <polygon points="1188,8767 1166,8736 1348,8608 1370,8638"/>
    <polygon points="1017,8514 997,8482 1186,8364 1207,8396"/>
    <polygon points="862,8254 843,8221 1040,8113 1058,8146"/>
    <polygon points="729,7999 696,7931 1307,7637 1340,7705"/>
    <polygon points="595,7702 580,7667 787,7582 801,7617"/>
    <polygon points="484,7421 472,7385 685,7311 697,7346"/>
    <polygon points="392,7132 382,7096 598,7033 608,7070"/>
    <polygon points="317,6845 305,6790 747,6689 759,6744"/>
    <polygon points="253,6533 247,6496 470,6458 476,6495"/>
    <polygon points="435,6208 211,6233 207,6196 431,6170"/>
    <polygon points="410,5919 184,5931 182,5894 407,5881"/>
    <polygon points="407,5329 182,5317 184,5279 409,5292"/>
    <polygon points="430,5040 206,5014 210,4977 435,5002"/>
    <polygon points="686,3902 475,3828 488,3793 699,3866"/>
    <polygon points="790,3628 584,3543 599,3508 804,3593"/>
    <polygon points="470,4753 249,4715 255,4678 476,4716"/>
    <polygon points="746,4524 306,4424 318,4368 758,4469"/>
    <polygon points="599,4179 383,4117 394,4081 609,4143"/>
    <polygon points="1310,3573 698,3278 731,3210 1343,3505"/>
    <polygon points="1043,3100 846,2988 865,2955 1062,3067"/>
    <polygon points="1190,2849 1001,2730 1021,2698 1210,2817"/>
    <polygon points="1352,2605 1169,2475 1191,2444 1374,2574"/>
    <polygon points="1698,2518 1346,2237 1381,2193 1734,2474"/>
    <polygon points="1717,2145 1547,1993 1572,1965 1742,2117"/>
    <polygon points="1918,1932 1756,1771 1783,1744 1944,1906"/>
    <polygon points="2583,1366 2453,1182 2484,1160 2614,1344"/>
    <polygon points="2128,1732 1978,1563 2006,1538 2157,1706"/>
    <polygon points="2618,1909 2195,1377 2254,1330 2677,1862"/>
    <polygon points="2827,1202 2706,1009 2738,989 2859,1182"/>
    <polygon points="3078,1053 2969,855 3002,837 3111,1035"/>
    <polygon points="3428,1123 3232,716 3283,691 3479,1098"/>
    <polygon points="3605,798 3518,588 3553,574 3639,784"/>
    <polygon points="3877,694 3802,481 3838,468 3912,681"/>
    <polygon points="4157,604 4093,383 4129,373 4193,593"/>
    <polygon points="4522,975 4371,310 4444,293 4595,958"/>
    <polygon points="4725,473 4687,250 4725,244 4762,467"/>
    <polygon points="5053,427 5015,431 4990,204 5027,200"/>
    <polygon points="5345,404 5307,406 5294,180 5332,178"/>
    <polygon points="5645,619 5588,619 5588,166 5645,166"/>
    <polygon points="5928,405 5890,403 5903,174 5941,176"/>
    <polygon points="6221,431 6183,426 6209,202 6246,207"/>
    <polygon points="6509,472 6472,466 6510,242 6547,249"/>
    <polygon points="6712,975 6638,958 6790,295 6863,312"/>
    <polygon points="7079,605 7043,595 7106,377 7142,387"/>
    <polygon points="7357,694 7321,682 7397,466 7433,479"/>
    <polygon points="7631,800 7596,786 7683,577 7717,592"/>
    <polygon points="7808,1127 7757,1102 7953,696 8004,721"/>
    <polygon points="8155,1056 8122,1038 8232,840 8265,858"/>
    <polygon points="8406,1205 8374,1185 8495,992 8527,1012"/>
    <polygon points="8648,1368 8618,1346 8750,1160 8781,1182"/>
    <polygon points="8614,1912 8555,1865 8979,1334 9038,1381"/>
    <polygon points="9106,1736 9078,1711 9227,1543 9256,1568"/>
    <polygon points="9318,1938 9291,1911 9450,1753 9476,1780"/>
    <polygon points="9516,2148 9490,2120 9659,1969 9684,1997"/>
    <polygon points="9533,2522 9498,2477 9851,2196 9887,2240"/>
    <polygon points="9881,2609 9859,2578 10041,2449 10063,2480"/>
    <polygon points="10043,2853 10023,2821 10212,2702 10232,2734"/>
    <polygon points="10189,3104 10171,3071 10368,2962 10386,2995"/>
    <polygon points="9922,3579 9889,3511 10501,3218 10533,3286"/>
    <polygon points="10442,3635 10428,3600 10635,3514 10649,3549"/>
    <polygon points="10544,3906 10532,3870 10745,3796 10757,3831"/>
    <polygon points="10631,4183 10620,4147 10837,4085 10847,4121"/>
    <polygon points="10482,4527 10470,4472 10912,4371 10924,4426"/>
    <polygon points="10759,4758 10753,4721 10976,4683 10982,4721"/>
    <polygon points="11023,5021 10798,5046 10794,5009 11018,4983"/>
    <polygon points="11047,5323 10822,5335 10819,5298 11045,5285"/>
    <polygon points="11045,5938 10820,5925 10822,5887 11047,5900"/>
    <polygon points="11019,6240 10794,6214 10799,6177 11023,6202"/>
    <polygon points="10974,6538 10753,6501 10759,6464 10980,6501"/>
    <polygon points="10911,6848 10471,6748 10483,6692 10923,6793"/>
    <polygon points="10835,7136 10620,7074 10630,7037 10846,7100"/>
    <polygon points="10741,7424 10530,7350 10543,7315 10754,7388"/>
    <polygon points="10631,7708 10425,7623 10439,7588 10645,7674"/>
    <polygon points="10498,8006 9886,7711 9919,7643 10531,7938"/>
    <polygon points="10364,8261 10167,8151 10185,8118 10383,8228"/>
    <polygon points="10208,8518 10019,8399 10039,8367 10228,8487"/>
    <polygon points="10038,8772 9855,8642 9877,8611 10060,8741"/>
    <polygon points="9848,9024 9495,8743 9531,8698 9883,8980"/>
    <polygon points="169,5649 169,5573 847,5572 847,5648"/>
    <polygon points="10371,5649 10371,5573 11049,5572 11049,5648"/>
    <polygon points="9225,9677 9253,9652 9103,9485 9075,9510"/>
    <polygon points="9447,9468 9474,9441 9315,9283 9289,9309"/>
    <polygon points="9657,9251 9682,9223 9515,9071 9489,9099"/>
    <polygon points="8976,9887 9035,9840 8612,9309 8553,9356"/>
    <polygon points="2582,9861 2451,10045 2482,10067 2613,9883"/>
    <polygon points="2825,10025 2704,10219 2736,10239 2857,10045"/>
    <polygon points="3076,10174 2967,10372 3000,10390 3109,10192"/>
    <polygon points="3426,10105 3231,10512 3282,10536 3477,10129"/>
    <polygon points="3603,10429 3516,10639 3551,10653 3638,10444"/>
    <polygon points="3875,10534 3801,10747 3836,10759 3911,10546"/>
    <polygon points="4155,10624 4092,10844 4128,10855 4191,10634"/>
    <polygon points="7078,10622 7041,10633 7104,10851 7141,10840"/>
    <polygon points="7355,10533 7320,10546 7395,10761 7431,10749"/>
    <polygon points="7629,10427 7595,10442 7681,10650 7716,10635"/>
    <polygon points="7806,10101 7756,10125 7951,10531 8002,10507"/>
    <polygon points="8154,10172 8121,10190 8230,10387 8263,10369"/>
    <polygon points="8404,10023 8372,10043 8494,10236 8526,10216"/>
    <polygon points="8647,9859 8616,9881 8748,10067 8779,10046"/>
  </g>
  <circle class="fil0" cx="5615" cy="5578" r="3699"/>
  <text x="2711" y="9308" class="sensor-dash"></text>
  <text x="1491" y="7747" class="sensor-dash"></text>
  <text x="964" y="5753" class="sensor-dash"></text>
  <text x="1434" y="3846" class="sensor-dash"></text>
  <text x="2611" y="2375" class="sensor-dash"></text>
  <text x="4338" y="1459" class="sensor-dash"></text>
  <text x="6410" y="1459" class="sensor-dash"></text>
  <text x="8112" y="2375" class="sensor-dash"></text>
  <text x="9046" y="3821" class="sensor-dash"></text>
  <text x="9500" y="5763" class="sensor-dash"></text>
  <text x="9066" y="7603" class="sensor-dash"></text>
  <text x="8056" y="9152" class="sensor-dash"></text>
  <text x="5614.5" y="3885" class="sensor-val" text-anchor="middle"></text>
  <text x="5614.5" y="3164" class="sensor-name" text-anchor="middle"></text>
  <path class="sensor-arrow" d="M1611 3495l3854 2216c13,7 26,14 40,19 96,36 194,9 233,-64l-4203 -2248c12,-18 35,-16 107,20l3982 1976c13,7 26,14 38,23 83,60 115,157 76,230l-4203 -2248c-9,20 6,38 76,78z">
    <animateTransform begin="indefinite" attributeName="transform" type="rotate" from="" to="" additive="replace" fill="freeze"/>
  </path>
</g>
</svg>