<svg class="indicator-body" xml:space="preserve" viewBox="0 0 3731 3731">
<g class="switch1SVG">
	<path class="fil0" d="M0 0h3731v3731h-3731z"/>
	<text class="fil2 fnt0 sensor-name" x="1865.5" y="620" text-anchor="middle"></text>
	<g class="switch-off">
		<path class="fil0 str0" d="M659 2447h656l1101-781M2416 2447h655"/>
		<path class="fil1_a str1" d="M2661 1628c0 138-112 250-250 250s-250-112-250-250 112-250 250-250 250 112 250 250z"/>
		<path class="fil3 str1" d="M2456 2447c0 21-17 39-39 39-21 0-39-17-39-39 0-21 17-39 39-39 21 0 39 17 39 39zM3108 2447c0 21-17 39-39 39-21 0-39-17-39-39 0-21 17-39 39-39 21 0 39 17 39 39zM680 2447c0 21-17 39-39 39-21 0-39-17-39-39 0-21 17-39 39-39 21 0 39 17 39 39zM1332 2447c0 21-17 39-39 39-21 0-39-17-39-39 0-21 17-39 39-39 21 0 39 17 39 39z"/>
	</g>
	<g class="switch-on">
		<path class="fil0 str0" d="M659 2447h1757M2416 2447h655"/>
		<path class="fil1 str1" d="M2661 2447c0 138-112 250-250 250s-250-112-250-250 112-250 250-250 250 112 250 250z"/>
		<path class="fil3 str1" d="M3110 2447c0 21-17 39-39 39-21 0-39-17-39-39 0-21 17-39 39-39 21 0 39 17 39 39zM681 2447c0 21-17 39-39 39-21 0-39-17-39-39 0-21 17-39 39-39 21 0 39 17 39 39zM1334 2447c0 21-17 39-39 39-21 0-39-17-39-39 0-21 17-39 39-39 21 0 39 17 39 39z"/>
	</g>
</g>
</svg>