<?xml version="1.0" encoding="utf-8"?>
<!-- Generator: Adobe Illustrator 18.1.1, SVG Export Plug-In . SVG Version: 6.00 Build 0)  -->
<svg version="1.1" id="Слой_1" xmlns="http://www.w3.org/2000/svg" xmlns:xlink="http://www.w3.org/1999/xlink" x="0px" y="0px"
	 viewBox="0 0 32 31.99" enable-background="new 0 0 32 31.99" xml:space="preserve">
<g>
	<path fill-rule="evenodd" clip-rule="evenodd" fill="#FFAB36" d="M16.11,26.83v5.16h-0.11c-8.57,0-15.63-6.83-15.96-15.35h5.09
		c0.32,5.67,5.07,10.19,10.81,10.19H16.11z"/>
	<path fill-rule="evenodd" clip-rule="evenodd" fill="#70CF61" d="M16.11,0v5.27h-0.18c-5.94,0-10.82,4.84-10.82,10.78
		c0,0.2,0.01,0.4,0.01,0.6H0.03C0,16.43,0,16.2,0,15.99C0,7.19,7.2,0,15.99,0H16.11z"/>
	<path fill-rule="evenodd" clip-rule="evenodd" fill="#00A5DD" d="M26.57,4.02l-6.39,2.13c-1.26-0.55-2.63-0.86-4.08-0.88V0
		C20.11,0.02,23.77,1.54,26.57,4.02z"/>
	<path fill-rule="evenodd" clip-rule="evenodd" fill="#00A5DD" d="M32,15.99c0,0.21,0,0.44-0.03,0.65h-5.28c0-0.2,0.01-0.4,0.01-0.6
		c0-1.47-0.29-2.87-0.83-4.14V11.9l2.35-6.19C30.58,8.5,32,12.09,32,15.99z"/>
	<path fill-rule="evenodd" clip-rule="evenodd" fill="#FD6B57" d="M23.11,13.52c0.28,0.79,0.44,1.64,0.44,2.53
		c0,4.21-3.43,7.63-7.63,7.63c-2.02,0-3.86-0.79-5.23-2.08c-1.49-1.38-2.42-3.36-2.42-5.55c0-4.2,3.44-7.63,7.65-7.63
		c0.94,0,1.85,0.18,2.69,0.5V8.91l7.16-2.4l-2.65,7.01H23.11z"/>
	<path fill-rule="evenodd" clip-rule="evenodd" fill="#FFFFFF" d="M15.91,19.52c1.91,0,3.48-1.56,3.48-3.48s-1.56-3.48-3.48-3.48
		s-3.48,1.56-3.48,3.48S14,19.52,15.91,19.52L15.91,19.52z"/>
</g>
<g>
</g>
<g>
</g>
<g>
</g>
<g>
</g>
<g>
</g>
<g>
</g>
<g>
</g>
<g>
</g>
<g>
</g>
<g>
</g>
<g>
</g>
<g>
</g>
<g>
</g>
<g>
</g>
<g>
</g>
</svg>
